<?xml version="1.0" encoding="utf-8"?>
<!-- Generator: Adobe Illustrator 16.2.1, SVG Export Plug-In . SVG Version: 6.00 Build 0)  -->
<!DOCTYPE svg PUBLIC "-//W3C//DTD SVG 1.1//EN" "http://www.w3.org/Graphics/SVG/1.1/DTD/svg11.dtd">
<svg version="1.1" id="Layer_1" xmlns="http://www.w3.org/2000/svg" xmlns:xlink="http://www.w3.org/1999/xlink" x="0px" y="0px"
	 width="200px" height="200px" viewBox="0 0 200 200" enable-background="new 0 0 200 200" xml:space="preserve">
<g>
	<path fill="#EE8422" d="M154.733,2L33.377,35.283h133.645L154.733,2z M154.733,2"/>
	<path fill="#EE8422" d="M154.733,2L33.377,35.283h133.645L154.733,2z M154.733,2"/>
	<path fill="#EE8422" d="M142.429,92.632c-6.755,0-12.788,6.459-12.788,13.219v28.673c0,6.758,6.033,11.361,12.788,11.361h50.706
		V92.632H142.429z M152.672,129.413c-5.09,0-9.217-4.127-9.217-9.216c0-5.092,4.125-9.217,9.217-9.217s9.219,4.125,9.219,9.217
		C161.89,125.286,157.764,129.413,152.672,129.413L152.672,129.413z M152.672,129.413"/>
	<path fill="#EE8422" d="M142.429,92.632c-6.755,0-12.788,6.459-12.788,13.219v28.673c0,6.758,6.033,11.361,12.788,11.361h50.706
		V92.632H142.429z M152.672,129.413c-5.09,0-9.217-4.127-9.217-9.216c0-5.092,4.125-9.217,9.217-9.217s9.219,4.125,9.219,9.217
		C161.89,125.286,157.764,129.413,152.672,129.413L152.672,129.413z M152.672,129.413"/>
	<path fill="#EE8422" d="M174.7,157.148c0,1.133-0.917,2.05-2.049,2.05c-1.129,0-2.048-0.917-2.048-2.05v-4.096h-28.422
		c-11.295,0-20.733-8.249-20.733-19.541v-28.677c0-11.294,9.438-21.42,20.733-21.42h28.422v-2.046c0-1.132,0.919-2.049,2.048-2.049
		c1.132,0,2.049,0.917,2.049,2.049v2.046h10.491V56.702c0-6.758-5.529-12.289-12.289-12.289H19.289
		c-6.09,0-11.168,4.495-12.117,10.326h3.674c1.131,0,2.045,0.917,2.045,2.049c0,1.13-0.915,2.047-2.045,2.047H7v120.843h1.801
		c1.13,0,2.045,0.918,2.045,2.05c0,1.131-0.917,2.049-2.045,2.049H7.199c1.018,5.751,6.058,10.157,12.09,10.157h153.613
		c6.76,0,12.289-5.531,12.289-12.29v-28.591H174.7V157.148z M166.509,54.74h8.191v8.194c0,1.131-0.917,2.049-2.045,2.049
		c-1.133,0-2.05-0.917-2.05-2.049v-4.096h-4.097c-1.132,0-2.048-0.917-2.048-2.049C164.461,55.657,165.377,54.74,166.509,54.74
		L166.509,54.74z M139.882,54.74h14.338c1.131,0,2.048,0.917,2.048,2.049c0,1.131-0.917,2.049-2.048,2.049h-14.338
		c-1.129,0-2.049-0.917-2.049-2.049C137.832,55.657,138.75,54.74,139.882,54.74L139.882,54.74z M111.209,54.74h14.336
		c1.132,0,2.048,0.917,2.048,2.049c0,1.131-0.916,2.049-2.048,2.049h-14.336c-1.134,0-2.049-0.917-2.049-2.049
		C109.159,55.657,110.075,54.74,111.209,54.74L111.209,54.74z M37.475,183.776H23.135c-1.131,0-2.046-0.918-2.046-2.049
		c0-1.132,0.915-2.05,2.046-2.05h14.339c1.132,0,2.046,0.918,2.046,2.05C39.521,182.858,38.606,183.776,37.475,183.776
		L37.475,183.776z M39.521,58.838H25.185c-1.132,0-2.05-0.917-2.05-2.049c0-1.132,0.917-2.049,2.05-2.049h14.335
		c1.135,0,2.048,0.917,2.048,2.049C41.569,57.921,40.652,58.838,39.521,58.838L39.521,58.838z M66.147,183.776H51.808
		c-1.128,0-2.046-0.918-2.046-2.049c0-1.132,0.917-2.05,2.046-2.05h14.339c1.131,0,2.046,0.918,2.046,2.05
		C68.197,182.858,67.281,183.776,66.147,183.776L66.147,183.776z M68.197,58.838H53.86c-1.131,0-2.048-0.917-2.048-2.049
		c0-1.132,0.917-2.049,2.048-2.049h14.337c1.131,0,2.048,0.917,2.048,2.049C70.245,57.921,69.328,58.838,68.197,58.838
		L68.197,58.838z M94.821,183.776H80.482c-1.128,0-2.045-0.918-2.045-2.049c0-1.132,0.917-2.05,2.045-2.05h14.339
		c1.133,0,2.045,0.918,2.045,2.05C96.87,182.858,95.955,183.776,94.821,183.776L94.821,183.776z M96.87,58.838H82.534
		c-1.131,0-2.048-0.917-2.048-2.049c0-1.132,0.917-2.049,2.048-2.049H96.87c1.133,0,2.05,0.917,2.05,2.049
		C98.92,57.921,98.003,58.838,96.87,58.838L96.87,58.838z M123.495,183.776h-14.336c-1.131,0-2.049-0.918-2.049-2.049
		c0-1.132,0.918-2.05,2.049-2.05h14.336c1.132,0,2.048,0.918,2.048,2.05C125.545,182.858,124.629,183.776,123.495,183.776
		L123.495,183.776z M152.169,183.776h-14.337c-1.128,0-2.045-0.918-2.045-2.049c0-1.132,0.917-2.05,2.045-2.05h14.337
		c1.133,0,2.049,0.918,2.049,2.05C154.22,182.858,153.304,183.776,152.169,183.776L152.169,183.776z M174.7,183.776h-8.191
		c-1.132,0-2.048-0.918-2.048-2.049c0-1.132,0.916-2.05,2.048-2.05h4.095v-6.143c0-1.133,0.919-2.05,2.048-2.05
		c1.132,0,2.049,0.917,2.049,2.05V183.776z M174.7,183.776"/>
	<path fill="#EE8422" d="M174.7,157.148c0,1.133-0.917,2.05-2.049,2.05c-1.129,0-2.048-0.917-2.048-2.05v-4.096h-28.422
		c-11.295,0-20.733-8.249-20.733-19.541v-28.677c0-11.294,9.438-21.42,20.733-21.42h28.422v-2.046c0-1.132,0.919-2.049,2.048-2.049
		c1.132,0,2.049,0.917,2.049,2.049v2.046h10.491V56.702c0-6.758-5.529-12.289-12.289-12.289H19.289
		c-6.09,0-11.168,4.495-12.117,10.326h3.674c1.131,0,2.045,0.917,2.045,2.049c0,1.13-0.915,2.047-2.045,2.047H7v120.843h1.801
		c1.13,0,2.045,0.918,2.045,2.05c0,1.131-0.917,2.049-2.045,2.049H7.199c1.018,5.751,6.058,10.157,12.09,10.157h153.613
		c6.76,0,12.289-5.531,12.289-12.29v-28.591H174.7V157.148z M166.509,54.74h8.191v8.194c0,1.131-0.917,2.049-2.045,2.049
		c-1.133,0-2.05-0.917-2.05-2.049v-4.096h-4.097c-1.132,0-2.048-0.917-2.048-2.049C164.461,55.657,165.377,54.74,166.509,54.74
		L166.509,54.74z M139.882,54.74h14.338c1.131,0,2.048,0.917,2.048,2.049c0,1.131-0.917,2.049-2.048,2.049h-14.338
		c-1.129,0-2.049-0.917-2.049-2.049C137.832,55.657,138.75,54.74,139.882,54.74L139.882,54.74z M111.209,54.74h14.336
		c1.132,0,2.048,0.917,2.048,2.049c0,1.131-0.916,2.049-2.048,2.049h-14.336c-1.134,0-2.049-0.917-2.049-2.049
		C109.159,55.657,110.075,54.74,111.209,54.74L111.209,54.74z M37.475,183.776H23.135c-1.131,0-2.046-0.918-2.046-2.049
		c0-1.132,0.915-2.05,2.046-2.05h14.339c1.132,0,2.046,0.918,2.046,2.05C39.521,182.858,38.606,183.776,37.475,183.776
		L37.475,183.776z M39.521,58.838H25.185c-1.132,0-2.05-0.917-2.05-2.049c0-1.132,0.917-2.049,2.05-2.049h14.335
		c1.135,0,2.048,0.917,2.048,2.049C41.569,57.921,40.652,58.838,39.521,58.838L39.521,58.838z M66.147,183.776H51.808
		c-1.128,0-2.046-0.918-2.046-2.049c0-1.132,0.917-2.05,2.046-2.05h14.339c1.131,0,2.046,0.918,2.046,2.05
		C68.197,182.858,67.281,183.776,66.147,183.776L66.147,183.776z M68.197,58.838H53.86c-1.131,0-2.048-0.917-2.048-2.049
		c0-1.132,0.917-2.049,2.048-2.049h14.337c1.131,0,2.048,0.917,2.048,2.049C70.245,57.921,69.328,58.838,68.197,58.838
		L68.197,58.838z M94.821,183.776H80.482c-1.128,0-2.045-0.918-2.045-2.049c0-1.132,0.917-2.05,2.045-2.05h14.339
		c1.133,0,2.045,0.918,2.045,2.05C96.87,182.858,95.955,183.776,94.821,183.776L94.821,183.776z M96.87,58.838H82.534
		c-1.131,0-2.048-0.917-2.048-2.049c0-1.132,0.917-2.049,2.048-2.049H96.87c1.133,0,2.05,0.917,2.05,2.049
		C98.92,57.921,98.003,58.838,96.87,58.838L96.87,58.838z M123.495,183.776h-14.336c-1.131,0-2.049-0.918-2.049-2.049
		c0-1.132,0.918-2.05,2.049-2.05h14.336c1.132,0,2.048,0.918,2.048,2.05C125.545,182.858,124.629,183.776,123.495,183.776
		L123.495,183.776z M152.169,183.776h-14.337c-1.128,0-2.045-0.918-2.045-2.049c0-1.132,0.917-2.05,2.045-2.05h14.337
		c1.133,0,2.049,0.918,2.049,2.05C154.22,182.858,153.304,183.776,152.169,183.776L152.169,183.776z M174.7,183.776h-8.191
		c-1.132,0-2.048-0.918-2.048-2.049c0-1.132,0.916-2.05,2.048-2.05h4.095v-6.143c0-1.133,0.919-2.05,2.048-2.05
		c1.132,0,2.049,0.917,2.049,2.05V183.776z M174.7,183.776"/>
</g>
</svg>
