<?xml version="1.0" encoding="utf-8"?>
<!-- Generator: Adobe Illustrator 16.2.1, SVG Export Plug-In . SVG Version: 6.00 Build 0)  -->
<!DOCTYPE svg PUBLIC "-//W3C//DTD SVG 1.1//EN" "http://www.w3.org/Graphics/SVG/1.1/DTD/svg11.dtd">
<svg version="1.1" id="Layer_1" xmlns="http://www.w3.org/2000/svg" xmlns:xlink="http://www.w3.org/1999/xlink" x="0px" y="0px"
	 width="200px" height="200px" viewBox="0 0 200 200" enable-background="new 0 0 200 200" xml:space="preserve">
<g>
	<g>
		<defs>
			<rect id="SVGID_1_" x="51" y="5.222" width="85.434" height="190.111"/>
		</defs>
		<clipPath id="SVGID_2_">
			<use xlink:href="#SVGID_1_"  overflow="visible"/>
		</clipPath>
		<path clip-path="url(#SVGID_2_)" fill="#F08422" d="M109.477,49.214l-0.379-0.23c-0.269-0.164-0.551-0.274-0.833-0.401
			c-2.134-1.382-4.507-2.403-6.923-2.996l-4.901,4.937l-4.759-4.989c-0.016,0.005-0.029,0.005-0.043,0.005
			c-2.448,0.589-4.841,1.607-6.99,2.999c-5.043,0.558-15.853-2.359-18.241-5.079c-0.007-0.023-0.015-0.038-0.022-0.061
			c-0.588-1.479,0.207-6.781,9.741-13.116c-0.476-1.763-0.758-3.607-0.758-5.519c0-3.754,0.997-7.271,2.728-10.327
			c-2.005-0.707-4.295-0.572-6.297,0.565C46.717,29.293,50.724,45.125,52.077,48.777c2.699,7.888,14.026,12.76,24.213,14.388v42.974
			c0,2.06,0.401,3.968,1.099,5.73c-0.051,0.395-0.088,0.796-0.088,1.206l-0.067,73.163c0,4.989,4.038,9.035,9.027,9.042h0.008
			c4.984,0,9.028-4.037,9.028-9.029l0.052-62.796c0.364,0.023,0.729,0.046,1.087,0.046c0.074,0,0.141-0.007,0.215-0.007v62.753
			c0,4.989,4.038,9.033,9.027,9.033c4.981,0,9.027-4.044,9.027-9.029l0.007-72.716c1.183-2.192,1.867-4.678,1.867-7.396V75.545
			c3.725,6.663,4.699,16.403,0.126,32.697c-1.137,4.068,1.234,8.283,5.295,9.419c0.691,0.195,1.384,0.286,2.066,0.286
			c3.34,0,6.41-2.204,7.354-5.57C143.326,69.962,122.132,56.978,109.477,49.214L109.477,49.214z M96.486,89.474h-0.098l-4.742-6.493
			l4.742-31.729h0.098l4.743,31.729L96.486,89.474z M96.486,89.474"/>
		<path clip-path="url(#SVGID_2_)" fill="#F08422" d="M117.232,24.654c0,10.864-8.812,19.676-19.684,19.676
			c-10.871,0-19.684-8.812-19.684-19.676c0-10.871,8.812-19.684,19.684-19.684C108.421,4.97,117.232,13.783,117.232,24.654
			L117.232,24.654z M117.232,24.654"/>
	</g>
</g>
</svg>
