<?xml version="1.0" encoding="utf-8"?>
<!-- Generator: Adobe Illustrator 16.2.1, SVG Export Plug-In . SVG Version: 6.00 Build 0)  -->
<!DOCTYPE svg PUBLIC "-//W3C//DTD SVG 1.1//EN" "http://www.w3.org/Graphics/SVG/1.1/DTD/svg11.dtd">
<svg version="1.1" id="Layer_1" xmlns="http://www.w3.org/2000/svg" xmlns:xlink="http://www.w3.org/1999/xlink" x="0px" y="0px"
	 width="200px" height="200px" viewBox="0 0 200 200" enable-background="new 0 0 200 200" xml:space="preserve">
<g>
	<path fill="#EE8422" d="M104.003,18.306h-4.245c-2.268,0-4.106-1.84-4.106-4.106v-0.139c0-5.266-4.269-9.535-9.536-9.535h-0.22
		c-5.267,0-9.535,4.269-9.535,9.535v0.138c0,2.267-1.839,4.107-4.106,4.107h-4.244c-4.52,0-8.185,3.664-8.185,8.184v0.167
		c0,4.52,3.665,8.185,8.185,8.185h35.992c4.52,0,8.184-3.665,8.184-8.185V26.49C112.187,21.97,108.523,18.306,104.003,18.306
		L104.003,18.306z M86.007,18.306c-2.283,0-4.134-1.851-4.134-4.134c0-2.283,1.851-4.134,4.134-4.134s4.133,1.851,4.133,4.134
		C90.141,16.455,88.291,18.306,86.007,18.306L86.007,18.306z M104.41,178.146H35.023c-6.088,0-11.023-4.935-11.023-11.023V34.841
		c0-6.087,4.935-11.023,8.268-11.023h22.333c-0.186,0.916-0.287,1.864-0.287,2.84c0,7.551,6.145,13.696,13.696,13.696h35.991
		c7.553,0,13.697-6.145,13.697-13.864c0-0.915-0.097-1.807-0.27-2.672h16.806c8.843,0,13.779,4.936,13.779,11.023v82.814
		c-0.916-0.055-1.826-0.139-2.758-0.139c-3.812,0-7.492,0.538-11.021,1.451V54.132H37.779v110.233h63.523
		C101.605,169.211,102.664,173.847,104.41,178.146L104.41,178.146z M145.257,125.784c-19.786,0-35.825,16.04-35.825,35.825
		c0,19.787,16.039,35.827,35.825,35.827c19.787,0,35.826-16.04,35.826-35.825C181.083,141.824,165.044,125.784,145.257,125.784
		L145.257,125.784z M168.667,154.25l-22.046,24.803c-1.087,1.222-2.6,1.849-4.123,1.849c-1.209,0-2.425-0.396-3.439-1.209
		l-13.779-11.023c-2.376-1.9-2.762-5.368-0.859-7.744c1.899-2.38,5.37-2.766,7.746-0.862l9.692,7.754l18.571-20.894
		c2.02-2.272,5.505-2.48,7.78-0.455C170.485,148.49,170.69,151.973,168.667,154.25L168.667,154.25z M120.455,100.982H76.361
		c-1.522,0-2.756-1.234-2.756-2.757V95.47c0-1.522,1.234-2.756,2.756-2.756h44.094c1.521,0,2.757,1.234,2.757,2.756v2.755
		C123.211,99.748,121.977,100.982,120.455,100.982L120.455,100.982z M120.455,76.179H76.361c-1.522,0-2.756-1.233-2.756-2.756
		v-2.755c0-1.522,1.234-2.756,2.756-2.756h44.094c1.521,0,2.757,1.233,2.757,2.756v2.755
		C123.211,74.945,121.977,76.179,120.455,76.179L120.455,76.179z M106.675,123.028H76.361c-1.522,0-2.756-1.233-2.756-2.756v-2.756
		c0-1.521,1.234-2.755,2.756-2.755h30.314c1.522,0,2.756,1.233,2.756,2.755v2.756C109.432,121.795,108.198,123.028,106.675,123.028
		L106.675,123.028z M101.164,147.831H76.361c-1.522,0-2.756-1.233-2.756-2.756v-2.757c0-1.521,1.234-2.754,2.756-2.754h24.803
		c1.522,0,2.756,1.233,2.756,2.754v2.757C103.919,146.598,102.687,147.831,101.164,147.831L101.164,147.831z M68.329,65.987
		L58.18,77.405c-0.5,0.563-1.196,0.851-1.898,0.851c-0.557,0-1.117-0.181-1.584-0.556l-6.343-5.075
		c-1.095-0.875-1.273-2.471-0.396-3.565c0.875-1.096,2.473-1.272,3.566-0.396l4.463,3.568l8.549-9.617
		c0.931-1.048,2.534-1.142,3.582-0.21C69.166,63.335,69.261,64.939,68.329,65.987L68.329,65.987z M68.329,90.506L58.18,101.925
		c-0.5,0.562-1.196,0.852-1.898,0.852c-0.557,0-1.117-0.183-1.584-0.558l-6.343-5.074c-1.095-0.875-1.273-2.472-0.396-3.566
		c0.875-1.096,2.473-1.272,3.566-0.396l4.463,3.568l8.549-9.617c0.931-1.047,2.534-1.142,3.582-0.211
		C69.166,87.854,69.261,89.458,68.329,90.506L68.329,90.506z M68.329,113.955L58.18,125.373c-0.5,0.562-1.196,0.851-1.898,0.851
		c-0.557,0-1.117-0.181-1.584-0.556l-6.343-5.075c-1.095-0.874-1.273-2.472-0.396-3.565c0.875-1.096,2.473-1.272,3.566-0.396
		l4.463,3.567l8.549-9.616c0.931-1.048,2.534-1.143,3.582-0.21C69.166,111.303,69.261,112.906,68.329,113.955L68.329,113.955z
		 M68.329,137.567l-10.149,11.42c-0.5,0.562-1.196,0.851-1.898,0.851c-0.557,0-1.117-0.183-1.584-0.558l-6.343-5.074
		c-1.095-0.873-1.273-2.471-0.396-3.565c0.875-1.095,2.473-1.272,3.566-0.397l4.463,3.57l8.549-9.618
		c0.931-1.046,2.534-1.142,3.582-0.211C69.166,134.917,69.261,136.521,68.329,137.567L68.329,137.567z M68.329,137.567"/>
</g>
</svg>
